# xmcd
#
# Track frame offsets:
#	150
#	16598
#	26555
#	39488
#	53868
#	66700
#	78446
#	89527
#	105022
#	118528
#	128486
#	142537
#	164468
#	180284
#	190926
#	204033
#	216231
#	229361
#	242350
#	257923
#	272210
#	285931
#	295490
#	309367
#	323964
#
# Disc length: 4450 seconds
#
# Revision: 1
# Processed by: cddbd v1.5.2PL0 Copyright (c) Steve Scherf et al.
# Submitted via: audiograbber 1.83.01
#
DISCID=53116019
DTITLE=Tom Astor - Trucker Hits
DYEAR=1998
DGENRE=Country
TTITLE0=Meine Antwort ist die Große Autobahn
TTITLE1=Adios Amigo
TTITLE2=Amanda
TTITLE3=Ehrbares Mädchen
TTITLE4=EIN RICHTIGER mANN IST IMMER UNTERWEGS
TTITLE5=Freunde holen dich auch aus der Hölle
TTITLE6=Gewöhn dich nicht an mein Bett
TTITLE7=Hilf mir durchdie Nacht
TTITLE8=Hör mal zu Herr Minister
TTITLE9=Ich bin ein Mann der Strasse
TTITLE10=Ich hab hunger auf ein Weib
TTITLE11=Ich hab noch Zeit
TTITLE12=Ich möcht so gern Dave Duddley hörn
TTITLE13=Irgendwo
TTITLE14=Joe einsam
TTITLE15=Kopf hoch Mann
TTITLE16=Mann Oh Mann
TTITLE17=Mein Auto kenn schon den Heimweg
TTITLE18=Mein Brummi
TTITLE19=Mein Daddy
TTITLE20=Mein Laster wartet schon
TTITLE21=Oh nur mit dir
TTITLE22=Trink sie dir schön
TTITLE23=Und dann träumt sie von Las Vegas
TTITLE24=wenn die Rosen blühn in Texas
EXTD=
EXTT0=
EXTT1=
EXTT2=
EXTT3=
EXTT4=
EXTT5=
EXTT6=
EXTT7=
EXTT8=
EXTT9=
EXTT10=
EXTT11=
EXTT12=
EXTT13=
EXTT14=
EXTT15=
EXTT16=
EXTT17=
EXTT18=
EXTT19=
EXTT20=
EXTT21=
EXTT22=
EXTT23=
EXTT24=
PLAYORDER=
